<?xml version="1.0" encoding="utf-8"?>
<svg version="1.1" id="Layer_1" xmlns="http://www.w3.org/2000/svg" xmlns:xlink="http://www.w3.org/1999/xlink" x="0px" y="0px"
	 viewBox="0 0 5690.636 5000" enable-background="new 0 0 5690.636 5000" xml:space="preserve">
<symbol  id="_x31_" viewBox="-83.769 -61.44 167.537 122.88">
	<path d="M60.962,61.44c2.07-3.227,1.132-7.332,2.049-10.904c0.909-0.77,2.12-1.14,2.941-2.049c1.233-1.287,2.465-2.587,3.942-3.609
		c1.737-1.119,1.695-3.496,3.138-4.863c0.686-0.745,1.754-0.82,2.688-1.069c2.343-0.458,4.333-1.838,6.411-2.928
		c0.917-0.501,1.96-1.451,1.544-2.617c-0.846-1.695-1.969-3.412-3.702-4.299c-5.254-2.702-1.41-1.275-13.188-2.608
		c-0.719-1.06-1.632-2.049-1.948-3.319c-0.339-2.446,0.907-1.673-0.723-8.569c-0.375-1.653-1.531-2.957-2.187-4.489
		c-1.022-2.318-1.577-4.8-2.562-7.13c-1.376-3.26-0.711-7.379-3.458-10.003c-3.626-3.382-6.68-7.324-10.344-10.668
		c-3.812-3.33-5.157-17.733-5.654-19.599c-0.744-3.626-1.771-7.715,0.173-11.143c0.681-1.094,0.362-2.764,1.645-3.454
		c2.343-1.42,6.867-2.298,6.306-4.796c-5.11-4.923-13.292-1.1-13.646-0.391c-0.702,1.384-0.808,2.987-1.544,4.35
		c-0.871,1.628-2.04,3.105-2.621,4.876c-0.484,1.22-0.21,2.549-0.227,3.82c0.093,1.371-0.517,2.633-0.732,3.954
		c-0.345,5.835-0.421,11.678-0.837,17.513C8.562-23.131,6.738-18.621,1.295-19.602C-1.23-24.42-2.154-30.444-14.627-39.508
		c-2.089-1.462-6.984,0.017-5.81-3.832c0.581-1.914,2.213-3.273,2.865-5.157c0.648-2.019,2.776-2.839,4.287-4.097
		c1.805-1.615,4.539-0.707,6.516-1.914c0.69-1.864,0.984-4.665-0.841-5.957c-2.554-0.215-5.082-1.258-7.656-0.9
		c-2.116,0.854-2.793,3.58-5.01,4.299c-2.642,0.753-3.121,3.879-4.762,5.717c-2.023,1.927-2.44,4.817-3.925,7.088
		c-1.195,2.057-3.227,3.996-2.911,6.575c0.505,3.248,3.735,5.199,4.409,8.384c0.441,2.151,0.059,3.575-3.264,14.16
		c-2.087-1.948-3.479-4.531-5.767-6.268c-7.56-6.255-16.642-11.484-26.658-11.93c-10.688-0.274-9.942,0.708-20.613,3.916
		c4.986,4.733,17.391,6.326,30.604,13.259c4.274,2.166,7.997,5.22,12.094,7.681c1.889,1.426,4.341,2.457,5.342,4.749
		c0.644,1.266,1.763,2.183,2.726,3.201c1.662,1.687,2.966,3.752,4.972,5.082c0.951,0.631,8.572,4.997,10.723,5.313
		c4.564,0.809,16.971,6.285,22.746,7.303c3.883,0.892,8.102,0.808,11.653,2.814c3.895,2.76,9.246,0.993,13.167,3.698
		c1.161,0.879,2.835,0.909,3.782,2.095c0.816,1.018,1.561,2.095,2.331,3.155c0.589,1.064,0.896,2.335,1.914,3.121
		c3.025,2.663,5.41,5.978,7.353,9.49c0.94,1.964,1.501,0.626,9.019,9.103C57.325,53.701,56.407,51.333,60.962,61.44z"/>
</symbol>
<symbol  id="_x31_0" viewBox="-75.085 -39.96 150.17 79.92">
	<path d="M39.93,38.221c2.284,0.707,4.531,1.792,6.979,1.737c13.526,0.098,10.386-3.872,13.76-5.056
		c2.625-0.984,5.57-0.463,8.19-1.519c2.07-0.837,4.804-0.66,6.226-2.663c-0.143-1.144-1.291-1.746-2.04-2.49
		c-1.031-2.772-3.912-4.468-6.768-4.695c-1.3-0.055-2.507-0.568-3.773-0.804c-0.993-0.05-2.023,0.181-2.974-0.206
		c-1.876-0.673-3.975-1.123-5.485-2.49c-0.558-4.097,0.676-7.864-1.308-7.892c-1.371-0.118-2.692,0.412-3.719,1.3
		c-0.837-2.305-2.293-4.476-2.192-7.025c0.339-14.092-0.06-14.706-0.707-15.964c-2.859-5.306-10.35-11.252-13.617-13.1
		c-0.404-1.199-0.913-2.406-0.888-3.702c0.029-2.596-0.265-5.191-0.135-7.791c0.921-0.088,1.872-0.025,2.772-0.282
		c1.283-0.951,2.162-2.352,2.793-3.799c-1.728-2.155-6.633-1.985-9.322-1.216c-1.729,1.615-2.739,3.744-3.63,5.893
		c-0.122,1.06-0.151,2.175,0.349,3.142c0.736,1.359,0.454,2.928,0.446,4.4c-4.076-1.649-8.481-0.261-12.464,0.963
		c-4.135,1.144-8.346,2.204-12.128,4.295c-6.857,2.204-14.383,1.923-20.983,5.023c-2.049,0.896-3.782,2.633-6.007,3.02
		c-3.437-0.875-4.312-4.8-7.004-6.655c-2.705-2.019-6.112-2.734-8.931-4.552c-1.069-0.778-0.804-2.259-0.538-3.374
		c0.484-1.758,0.862-3.563,1.552-5.263c3.147-1.886,3.375-0.073,5.111-5.696c-1.729-0.602-3.567-0.215-5.334-0.56
		c-1.54-0.4-3.147,0.324-4.27,1.342c-1.241,2.81-1.048,6.255-3.243,8.62c-1.409,1.426-2.419,3.323-2.448,5.355
		c0.501,2.023,1.632,3.849,1.952,5.923c0.918,4.503-2.287,3.934-2.877,15.607c-0.055,1.069,0.379,2.07,0.677,3.067
		c-2.078-1.679-3.714-3.908-4.526-6.466c-2.426-7.98-10.005-20.061-18.509-19.729c1.477,3.086,7.534,4.744,10.845,12.321
		c2.262,4.918,5.051,16.059,12.574,18.968c3.908,1.746,7.98,3.685,12.376,3.429c5.902,0.097,11.745,1.203,17.651,1.245
		c1.857,0.036,20.909-1.058,26.124-1.708c2.192-0.265,4.219,0.774,6.293,1.287c3.904,0.82,7.871,1.493,11.615,2.924
		c5.548,2.209,5.773,4.188,7.076,6.785c2.259,4.463,4.211,9.208,7.677,12.91C37.132,35.061,37.729,37.657,39.93,38.221z"/>
</symbol>
<symbol  id="_x31_1" viewBox="-70.789 -60.347 141.578 120.693">
	<path d="M38.874,56.573c3.189,0.143,4.598,4.581,8.014,3.643c0.45-0.749,0.913-1.502,1.439-2.221
		c1.106,0.694,2.192,1.859,3.643,1.54c2.011-0.362,3.336-2.187,4.081-3.967c-1.456-0.421-3.218-0.437-4.295-1.636
		c-0.946-1.233,0-2.76,0.909-3.698c6.408-6.469,1.315-3.076,10.765-12.039c2.741-2.627,10.461-6.041,6.003-9.129
		c-2.452-1.75-5.557-2.145-8.481-2.326c1.636-1.472,3.584-3.025,3.614-5.448c0.126-4.047-1.695-7.808-2.81-11.619
		c-1.247-3.559-1.791-10.746-7.097-16.356c-1.296-1.401-1.388-3.407-2.099-5.094c-0.694-1.338-1.935-2.28-2.713-3.563
		c-1.275-2.12-2.049-4.518-3.496-6.541c-0.938-1.262-1.325-2.835-2.255-4.102c-0.997-1.367-2.187-2.575-3.172-3.95
		c-0.917-1.169-1.683-2.554-3.037-3.273c-3.047-1.874-3.206-1.456-2.625-10.676c0.502-6.181,3.172-7.459,7.114-7.437
		c1.363-1.245,3.109-2.52,3.201-4.547c-6.228-1.178-3.405-1.696-7.728-1.258c-2.557-3.784-3.46-3.298-10.723-3.067
		c-0.77,0.013-1.014,0.909-1.46,1.367c-0.669,1.165-2.537,1.195-2.755,2.667c-0.135,1.477,0.631,3.05-0.316,4.392
		c-2.457,4.131-0.808,9.137-2.066,13.558c-2.457,5.901-6.431,7.893-12.183,10.845c-8.497,4.319-22.318,3.3-27.436,1.435
		c-3.996-1.552-6.701-5.048-9.398-8.207c-1.026-1.329-2.314-2.625-2.638-4.333c-0.025-1.923,0.803-3.71,1.531-5.452
		c1.779-0.408,3.672-0.505,5.326-1.35c1.788-0.867,3.097-4.191-1.207-5.048c-2.126-0.326-8.295-0.069-9.12,1.451
		c-2.251,3.399-1.969,7.69-3.378,11.404c-3.243-1.632-6.537-3.344-10.176-3.874c-2.141-0.084-2.898-2.36-3.605-4.009
		c-0.618-1.885-1.493-3.748-1.632-5.742c0.833-1.254,2.533-1.283,3.811-1.851c1.371-0.37,2.478-1.737,2.267-3.197
		c-0.502-3.602-6.915-4.562-9.423-1.83c-1.564,1.917-3.663,1.071-3.424,4.047c0.291,2.955,3.543,8.258,2.566,14.606
		c-2.389-0.358-4.552-1.872-7.025-1.607c-1.985,0.337-3.441,2.137-3.87,4.03c-0.547,2.082-1.842,3.9-2.208,6.028
		c-0.374,2.352,0.353,4.892,2.078,6.567c3.31,3.334,7.88,2.823,8.539,4.463c2.158,4.102,4.627,8.094,6.02,12.54
		c0.904,2.718,0.379,5.751,1.75,8.329c6.398,12.979,9.15,18.383,21.349,21.488c17.33,4.304,26.518-0.232,37.667,1.161
		c4.261,0.509,8.594,2.49,10.883,6.276c2.049,3.025,1.005,7.025,2.865,10.117c0.993,1.674,2.814,2.532,4.177,3.841
		c1.472,1.392,2.179,3.386,3.63,4.8c2.082,2.087,4.976,3.096,7.088,5.145C36.46,54.853,37.166,56.582,38.874,56.573z"/>
</symbol>
<symbol  id="_x31_2" viewBox="-64.11 -55.56 128.219 111.121">
	<path d="M34.379,51.603c1.586,1.952,3.895,3.185,6.276,3.883c1.397,0.421,2.023-1.043,2.448-2.07
		c1.127,0.16,2.221,0.581,3.374,0.597c1.456-0.787,0.989-2.848,1.721-4.144c0.4-1.136,1.779-0.804,2.705-1.123
		c0.513-0.349,0.795-0.946,1.195-1.43c1.043,0.416,2.087,0.854,3.21,1.039c-0.109-1.094-0.698-2.04-1.039-3.071
		c-0.072-1.514,1.165-2.621,2.196-3.559c2.192-1.885,3.925-4.232,6.154-6.079c3.541-3.057-0.007-4.058-2.583-7.614
		c-0.429-1.742-1.018-3.529-2.31-4.838c-1.262-0.993-3.054-0.458-4.257,0.349c-3.673,2.538-6.362,9.666-10.184,8.182
		c-4.323-1.372-3.341-8.311-3.891-11.669c-1.115-6.937-3.062-13.722-4.034-20.688C35.073-3.088,33.673-5.258,33.5-7.74
		c-0.366-3.891-0.946-7.766-1.052-11.678c-0.959-3.239-1.161-6.626-1.275-9.987c-1.902-3.071-1.376-6.84-2.074-10.256
		c-0.122-1.666-0.66-3.992,1.098-4.998c1.569-0.879,3.227-1.864,4.03-3.567c0.627-1.056,0.606-2.667-0.547-3.361
		c-0.816-0.467-1.477-1.089-1.556-2.087c-0.665-0.656-1.262-1.611-2.343-1.405c-2.161,0.184-7.004-2.051-9.827,1.784
		c-1.641,2.162-1.931,4.96-3.147,7.328c-0.917,1.662-0.719,3.601-0.816,5.414c-0.215,4.951-1.7,9.827-1.258,14.799
		c0.568,2.747,0.787,5.603,0.336,8.38c-0.143,1.043-1.102,1.805-2.141,1.746C4.344-16.043-11.802-6.155-14.25-6.184
		c-0.512-2.949,0.585-5.773-1.969-11.61c-0.534-1.241-1.535-2.255-1.771-3.626c-0.395-1.969-1.594-3.651-1.998-5.62
		c-0.849-3.242-1.013-11.18,1.094-14.151c1.35-1.973,4.123-2.272,5.393-4.333c0.744-1.148,1.481-2.819,0.496-4.047
		c-0.833-1.048-2.343-0.395-3.479-0.572c-1.784,0.252-3.681-1.043-5.326,0.063c-2.427,1.498-3.323,4.396-4.526,6.815
		c-0.829,3.815-3.227,7.168-3.492,11.118c-0.622,4.692,3.359,8.904,0.299,16.41c-0.778,1.7-0.803,3.626-1.691,5.279
		c-1.325-1.258-2.103-2.919-2.751-4.602c-1.384-3.672-4.956-5.793-6.991-9.036c-0.768-1.365-5.611-4.849-7.063-6.457
		c-1.199-1.304-2.229-2.776-3.618-3.9c-2.373-1.88-3.344-4.939-3.992-7.778c-0.868-3.78,4.878-6.729,1.897-9.452
		c-1.514-1.46-3.799-0.883-5.692-1.014c-2.061-0.164-4.043,1.317-4.476,3.332c-0.825,3.159,1.102,6.112,1.325,9.217
		c1.594,3.567,1.565,7.652,3.378,11.148c0.816,1.758,2.314,3.025,3.534,4.484c2.238,3.058,2.798,6.907,4.484,10.239
		c0.774,1.821,1.422,3.689,2.108,5.54c0.198,1.148-0.231,2.331,0.029,3.483c0.501,2.377-0.063,4.842,0.555,7.189
		c1.136,3.824,1.855,7.837,3.807,11.358c1.498,2.04,3.525,3.82,4.219,6.335c0.848,4.277-0.529,7.023-0.185,9.053
		c0.74,3.508-0.055,7.214,1.178,10.643c0.896,2.028,1.115,4.324,2.415,6.167c7.872-4.779,0.107-21.256,5.401-22.531
		c5.629-0.458,11.207,0.841,16.835,0.698c6.729-0.153,23.38-1.472,29.194,2.911c5.054,3.987,6.629,13.592,13.672,20.053
		C29.979,48.512,32.638,49.492,34.379,51.603z"/>
</symbol>
<symbol  id="_x31_3" viewBox="-76.869 -50.358 153.738 100.716">
	<path d="M49.647,48.429c2.075,2.523,8.578,3.573,16.562-3.256c1.363-1.237,0.324-3.681,2.036-4.682
		c2.545-1.737,5.241-3.243,7.984-4.64c2.259-0.883-2.08-4.838-3.483-5.54c-0.913-0.437-1.502-1.653-2.65-1.409
		c-6.811,0.512-8.822,4.977-16.532-3.315c-1.005-0.93-0.871-2.427-1.493-3.563c-3.239-5.611-7.257-6.184-6.525-12.103
		c0.311-2.057-0.551-4.013-1.144-5.936c-0.74-2.074-0.989-4.337-2.145-6.247c-6.034-10.744-4.293-10.703-5.103-24.033
		c-0.227-5.574-1.081-11.194-0.24-16.755c0.185-1.35,1.632-1.779,2.608-2.457c1.136-0.711,2.373-1.965,1.985-3.433
		c-1.069-1.165-2.764-1.3-4.232-1.409c-1.729-0.046-4.089-0.004-4.598,2.053c-1.779,0.118-3.761-0.656-5.397,0.252
		c-1.354,1.321-0.459,3.357-0.143,4.93c-0.467,1.809-0.61,3.677-1.039,5.486c-0.257,0.846-1.641,1.123-1.321,2.15
		c1.036,5.894,1.999,23.302,1.25,28.092c-3.18,0.475-6.415,0.341-9.595,0.799C9.09-5.063,2.595-0.819-4.851,0.309
		c-4.089,0.795-8.111,2.566-12.355,1.855c-1.711-6.17,2.342-2.248-12.687-26.077c-2.642-5.229-4.051-11.392-2.772-17.18
		c1.96-1.207,3.492-2.97,4.619-4.972c0.534-1.359-0.879-2.213-2.04-2.263c-3.879-0.259-7.73-0.588-7.257,3.281
		c-0.602,0.135-1.207,0.236-1.767,0.454c-0.391,1.035-0.173,2.166-0.265,3.235c-0.639,5.17-1.645,10.319-1.969,15.523
		c-0.408,4.488,5.747,4.947,8.098,16.865c1.476,5.957-4.018,14.561-4.476,23.532c-2.07-1.54-4.017-3.269-6.272-4.543
		C-59.592,2.34-66.599,6.24-76.869,10.005c1.174,0.602,2.276,1.359,3.517,1.826c1.102-0.013,2.091-0.589,3.126-0.921
		c2.898-1.089,6.045-0.736,9.074-0.757c11.847-0.058,15.971,4.751,21.387,9.095c14.062,11.116,20.637,10.471,34.537,10.197
		c5.389,0.013,10.693-1.027,16.04-1.561c2.814-0.294,5.439,0.942,8.148,1.472c8.68,1.716,11.754,1.719,14.517,4.089
		c2.97,2.499,6.087,4.88,8.544,7.913C44.233,44.066,47.329,45.833,49.647,48.429z"/>
</symbol>
<symbol  id="_x31_4" viewBox="-88.266 -53.111 176.532 106.222">
	<path d="M51.428,47.911c8.161,7.226,9.419,5.142,13.18,4.102c1.38-0.479,2.835-0.627,4.266-0.896
		c1.144-0.627,2.133-1.493,3.168-2.288c3.984-3.318,2.018-2.543,4.287-6.003c1.645-0.517,3.029-1.565,4.417-2.554
		c2.389-1.691,5.54-2.259,7.522-4.531c-0.416-0.618-0.997-1.102-1.447-1.695c-0.286-0.976-0.286-2.095-0.993-2.898
		c-0.989-1.127-2.301-1.897-3.449-2.844c-4.869-4.072-11.792,0.904-14.795,0.084c-1.132-1.977-1.262-4.409-1.813-6.6
		c-10.424-15.05-7.043-15.941-9.86-19.591c-1.207-1.493-1.855-3.386-3.176-4.783c-1.241-0.648-2.507-1.338-3.218-2.608
		c-1.524-4.012-1.944-14.088-1.948-14.13c-0.24-2.962,0.273-5.902,0.702-8.826c0.581-3.647-0.311-7.69,1.872-10.946
		c0.951-1.182,0.656-3.012,1.88-3.992c2.091-1.136,4.497,1.06,6.588-0.168c0.888-0.45,1.952-1.435,1.409-2.532
		c-2.518-3.178-10.189-3.121-14.198-2.234c-1.043,0.109-1.115,1.241-1.384,2.019c-0.795,0.858-1.8,1.75-1.733,3.029
		c0.135,2.545-2.945,4.144-2.436,6.752c0.795,1.872,0.189,3.921-0.757,5.608c-0.072,0.66-0.13,1.308-0.206,1.956
		c-1.106,0.029-1.952,0.723-2.806,1.325c-0.025,2.015-0.766,3.916-0.833,5.919c-0.69-0.156-1.384-0.278-2.074-0.387
		c-0.358-1.716-1.073-3.336-1.371-5.069c-1.31-7.233-3.384-8.414-2.852-16.036c0.114-1.001,0.198-2.221,1.132-2.844
		c1.758-1.153,4.097-0.555,5.877-1.657c2.008-1.094-1.392-4.95-5.633-4.224c-1.666,0.286-3.332,0.093-4.989-0.017
		c-1.721,0.681-4.017,1.346-4.434,3.428c-0.922,2.54,2.285,3.754-0.236,10.176c-0.236-0.076-0.698-0.219-0.93-0.29
		c-0.299,0.829-0.694,1.603-1.258,2.267c0.635,2.713,0.017,5.532-1.346,7.909c-0.391,2.831-0.816,5.94,0.412,8.624
		c0.564,1.805,0.534,3.778,1.456,5.469c-4.089,1.233-8.674,1.329-12.187,4.013C3.279-7.877-0.693-5.711-4.782-3.797
		C-6.603-5.261-8.58-6.531-10.33-8.079c-1.481-2.457-1.99-5.372-3.593-7.77c-1.212-1.813-2.503-3.597-3.298-5.65
		c-0.989-2.503-2.823-4.564-3.757-7.097c-1.8-4.598-2.187-10.201,0.715-14.446c1.123-1.502,1.927-3.454,3.748-4.249
		c2.133-0.883,4.585,0.017,6.705-0.925c0.623-1.085,1.355-2.461,0.804-3.719c-2.12-1.123-4.632-0.635-6.933-0.77
		c-3.071-0.067-6.171-0.766-9.225-0.164c-1.859,0.374-2.848,2.183-3.862,3.597c-1.333,2.019-0.236,4.602-1.216,6.726
		c-0.778,1.489-0.639,3.222-1.136,4.787c-0.568,1.283-1.552,2.638-0.925,4.097c1.115,2.995,2.007,6.108,2.276,9.301
		c-0.084,1.38-0.122,2.764-0.194,4.139c-0.568,1.376-1.216,3.033-2.709,3.601c-1.165,0.332-2.04-0.723-2.81-1.418
		c-3.534-3.487-8.132-5.843-11.106-9.903c-2.36-3.067-7.255-12.022-4.943-14.664c1.018-0.883,2.528-0.673,3.643-1.397
		c0.644-0.404,0.816-1.186,1.094-1.851c-1.767-1.157-3.82-1.779-5.894-2.095c-1.527-0.025-3.037,0.324-4.56,0.345
		c-0.934,0.883-2.31,1.594-2.49,2.987c-0.071,1.607-1.392,2.671-1.901,4.106c-0.4,2.873,0.639,5.734,2.234,8.098
		c0.993,1.018,1.931,2.124,2.385,3.496c0.837,1.838,0.496,4.413,2.579,5.46c1.914,0.997,3.109,2.819,4.787,4.11
		c0.45,2.103,1.06,4.169,1.788,6.188c0.345,1.304,2.402,1.523,2.141,3.054c-0.038,1.317,0.416,2.562,0.551,3.849
		c-0.652,1.948-1.19,3.933-1.649,5.936c-0.707-0.694-1.615-1.291-1.994-2.242c0.084-0.896,0.324-1.763,0.496-2.65
		c-4.188-2.19-10.328,1.891-11.913,2.061c-2.478,0.358-4.93,0.862-7.391,1.317c-1.481,0.303-3.067,0.555-4.261,1.556
		c-1.704,1.426-4.19,0.496-6.028,1.523c-1.691,1.489-2.743,3.555-3.799,5.507c-0.665,0.913-1.981,0.787-2.877,0.324
		c-1.085-0.08-2.171-0.126-3.252-0.152c-0.623,2.293,0.602,4.375,1.918,6.133c1.245,2.267,3.979,3.083,6.356,3.513
		c3.517,0.114,7.021,0.471,10.521,0.829c11.077,0.697,17.596-0.544,24.083,3.921c1.418,0.972,3.193,0.942,4.762,1.514
		c3.886,1.355,15.561,10.184,29.602,8.906c5.452-0.332,10.883,0.783,16.335,0.345C41.285,29.668,42.399,40.011,51.428,47.911z"/>
</symbol>
<symbol  id="_x31_5" viewBox="-83.822 -75.328 167.644 150.657">
	<path d="M58.178,70.037c0.517,1.796,0.509,3.841,1.847,5.292c4.967-5.121-1.323-9.779,1.342-13.626
		c2.116-2.945,6.037-3.698,8.468-6.297c1.048-1.056,0.278-2.924,1.523-3.87c3.908-3.281,7.761-6.785,12.464-8.914
		c-0.147-2.49-1.725-4.518-3.416-6.213c-1.7-1.729-3.538-3.752-6.112-3.984c-2.129-0.198-4.299-0.231-6.411,0.151
		c-3.151,0.648-4.009,4.598-7.055,5.469c-7.179,2.196-10.037-18.146-9.76-23.658c0.24-5.187,1.628-10.416,0.463-15.59
		c-1.144-5.982-4.998-10.929-6.886-16.646c-0.822-3.018-3.013-21.4-2.431-32.551c0.303-3.311-1.405-6.36-1.354-9.646
		c-0.013-1.721,1.418-2.898,2.469-4.081c1.577-0.799,3.445-0.623,5.124-1.14c1.968-6.652,1.336-4.473,0.101-7.644
		c-2.886,0.492-5.772-0.959-8.611,0.038c-1.88,0.564-3.05,2.217-4.341,3.563c-0.829,0.98-2.255,1.048-3.155,1.901
		c-0.404,1.779-0.194,3.778-1.472,5.25c-1.363,1.662-1.094,3.908-0.669,5.852c1.048,4.568,0.787,9.293,0.421,13.92
		c-0.8,8.367-2.12,9.025-1.359,11.316c2.675,10.089-0.864,9.228-2.907,10.235c-5.746,3.43-7.545-1.923-24.294,9.398
		c-4.455,2.865-9.877,3.584-15.068,3.635c0.32-1.224,0.833-2.911-0.505-3.744c-5.226-2.983-10.822,4.406-16.995-1.498
		c-3.997-3.853-4.273-10.55-9.448-15.75c-0.896-0.934-2.095-1.62-2.663-2.831c-1.527-3.412-4.24-6.116-7.126-8.413
		c-4.366-3.465-6.399-5.307-7.105-16.684c-0.291-4.801,2.913-3.153,6.466-4.556c0.454-2.078,0.9-4.165,0.997-6.302
		c-3.113-0.303-6.912-1.249-9.393,1.249c-7.561-2.437-1.752,9.223-3.555,14.9c-1.616-1.919-3.066-10.095-2.827-14.593
		c1.405-0.997,3.134-1.552,4.278-2.894c1.111-1.299,3.288-4.37,1.742-5.094c-1.923-1.094-4.232-1.073-6.373-1.291
		c-1.834-0.038-4.097-0.202-5.389,1.363c-4.956,6.384,0.524,8.353-1.073,21.517c-0.097,1.228-0.677,2.406-0.568,3.639
		c1.927,2.802,5.864,3.231,7.778,6.066c4.738,6.773,9.224,15.635,8.064,23.827c-0.972-1.01-1.321-2.368-1.565-3.706
		c-0.4-2.204-1.906-3.946-3.176-5.717c-5.094-6.797-4.285-7.536-13.175-10.424c-5.557-1.733-10.513,0.675-9.049,2.713
		c2.36,0.875,4.825-0.761,7.235-0.088c4.224,0.968,7.568,4.257,9.835,7.816c10.484,17.297,1.902,51.622,49.887,52.722
		c11.118,0.333,23.787-2.196,32.665,1.481c2.204,0.888,4.123,2.318,6.192,3.454c2.406,1.405,4.96,2.978,6.205,5.582
		c1.882,4.019,3.605,10.724,9.751,16.751c6.521,6.27,17.516,13.753,17.079,22.725C57.206,73.747,57.151,71.484,58.178,70.037z"/>
</symbol>
<symbol  id="_x31_6" viewBox="-49.771 -44.61 99.541 89.22">
	<path d="M23.504,44.61c3.714-0.9,4.888-5.822,8.868-6.213c3.287-0.843,6.944,3.928,11.606,5.826
		c0.892,0.349,2.314,0.539,2.709-0.61c0.77-2.532-0.989-5.237,0.231-7.698c1.333-2.633,1.8-5.582,2.852-8.333
		c-1.458-4.975,1.063-10.635-3.82-13.533c-1.182-0.581-1.09-2.044-1.435-3.138c-0.458-1.939-2.322-3.416-2.124-5.528
		c0.332-4.16-3.113-7.58-2.591-11.77c0.32-2.288-0.602-4.497-2.074-6.209c-1.54-1.737-2.141-4.017-3.34-5.961
		c-2.401-4.135-7.217-11.525-6.016-15.657c0.69-2.154,3.525-2.503,4.312-4.615c0.576-1.275-0.846-2.246-1.868-2.654
		c-11.722-4.378-7.665,4.244-12.481,3.454c0.677,3.525-0.681,6.949-1.817,10.218c-1.294,4.125-6.057,3.235-9.234,4.026
		c-1.994,0.572-3.605,2.061-5.654,2.465c-1.7,0.383-2.12-2.154-3.773-1.851c-2.091,0.042-3.832,1.346-5.553,2.364
		c-1.485-0.959-2.545-2.389-3.816-3.593c-1.203-1.161-3.096-1.254-4.156-2.591c-1.636-1.91-2.495-4.85-1.245-7.181
		c1.439-2.217,4.329-2.961,5.767-5.183c1.237-2.157-5.481-3.033-8.241-1.569c-4.265,2.323-4.836,9.047-7.976,14.307
		c-6.164-4.114-9.177-11.608-6.924-13.604c0.732-0.879,1.96-1.552,2.04-2.818c-1.779-2.265-8.409-2.334-8.695,1.493
		c-0.206,4.392-1.292,8.943,0.164,13.23c0.669,2.246,2.49,3.996,2.814,6.36c0.816,4.846-2.23,9.478-1.148,14.315
		c1.812,8.496,3.339,7.792,3.841,10.067c-0.387,1.38-1.447,2.511-1.418,4.009c-3.172,2.305-5.763,5.284-8.779,7.766
		c-2.941,2.469-3.904,6.428-4.135,10.096c-0.063,1.822-0.488,3.79,0.328,5.498c1.347,2.718,6.328-2.481,8.464-4.632
		c3.433-3.559,7.408-6.567,10.626-10.336c4.17-5.607,11.67-3.455,18.8-2.667c4.77,0.644,9.524-0.614,14.307-0.395
		c4.682,0.08,10.771,3.159,12.519,7.189c1.022,2.213,1.09,4.678,1.472,7.038c0.45,2.389,2.789,3.761,3.563,5.999
		C21.948,36.309,20.252,44.281,23.504,44.61z"/>
</symbol>
<symbol  id="_x31_7" viewBox="-46.458 -49.397 92.916 98.793">
	<path d="M21.382,46.405c0.055,1.022,0.353,2.002,0.816,2.907c1.82-1.225,3.205-7.032,5.406-9.722
		c0.627-0.879,2.352-0.581,2.528,0.543c0.282,1.447,0.391,2.928,0.862,4.329c0.517,1.615,0.223,3.445,1.136,4.935
		c3.38-2.414-0.084-7.743,2.284-9.263c2.142-1.133,5.173,0.305,9.709-7.193c0.846-1.178-0.429-2.389-0.816-3.504
		c1.094-0.862,3.025-2.032,1.889-3.647c0.766-1.653,1.573-3.517,1.14-5.368c-1.262-1.67-3.105-3.067-5.229-3.315
		c-2.793-0.101-5.241-1.704-7.513-3.176c-0.437-1.106,0.042-2.427-0.526-3.534c-0.804-1.426,0.505-2.844,0.501-4.312
		c-0.063-1.312-0.446-2.579-0.707-3.866c-0.652-2.705-0.795-5.566-2.049-8.102c-0.467-1.338-1.573-2.343-2.028-3.685
		c-0.53-4.299-0.867-8.666-2.162-12.826c-0.74-2.28-0.698-4.77-1.763-6.954c-1.182-2.402-0.778-5.582,1.296-7.374
		c1.161-1.136,2.882-1.254,4.245-2.053c0.854-0.698,1.19-1.826,1.691-2.785c-0.442-0.374-0.728-1.081-1.401-1.056
		c-3.745-0.493-6.393-0.804-8.064,2.558c-0.585,0.479-1.216,0.921-1.628,1.548c-0.77,1.106-0.702,2.654-1.88,3.479
		c2.149,7.764-2.302,10.055-0.837,18.055c0.017,0.631,0.362,1.535-0.395,1.842c-1.283-0.114-2.549-0.496-3.668-1.123
		c-0.614-1.317,0.042-2.844-0.467-4.202c-1.283-4.039-1.374-17.967-1.493-19.38c-0.236-1.754,0.723-3.471,2.221-4.367
		c1.481-0.862,2.473-2.436,2.852-4.085c-0.32-1.165-1.712-1.157-2.675-1.073c-6.017,0.549-6.893,0.653-7.488,6.588
		c-0.072,1.577-0.774,3.05-0.724,4.627c0.034,2.12-0.559,4.19-0.463,6.306c0.105,2.919,0.471,5.906-0.307,8.762
		c-0.778,2.684-0.585,5.507-0.795,8.258c-3.513,0.745-7.088,1.544-10.247,3.311c-1.329,1.077-2.537,2.339-4.139,3.016
		c-1.674-7.458-3.368-5.649-9.406-10.369c-1.195-0.833-0.74-2.465-0.804-3.706c0.194-2.288,0.181-5.023,2.053-6.68
		c1.043-1.014,2.856-0.846,3.651-2.171c0.631-0.698,0.593-2.095-0.202-2.642c-10.039-2.312-6.37,3.47-11.598,13.992
		c-0.471,1.426-1.359,2.978-0.9,4.48c1.098,1.317,2.928,1.733,4.165,2.919c3.347,2.508,2.14,7.241,0.686,6.853
		c-2.011-0.618-2.882-2.734-4.068-4.274c-1.254-1.157-2.259-2.532-3.193-3.95c-1.275-1.96-3.243-3.277-4.968-4.791
		c-1.14-1.022-2.545-1.641-3.815-2.461c-1.977-2.137-2.671-5.136-3.008-7.955c-0.311-2.116,0.812-4.089,0.782-6.205
		c-1.279-0.379-2.633-0.442-3.95-0.362c-0.85,0.534-1.737,1.077-2.331,1.893c-0.278,1.456,0.803,2.692,1.085,4.059
		c0.45,2.187,1.645,4.215,1.338,6.516c0.597,2.238,1.3,4.472,1.822,6.739c0.496,2.838,2.942,3.407,3.437,8.354
		c0.252,3.016,2.549,5.321,3.168,8.228c0.555,2.402,0.749,5.132,2.642,6.933c1.725,1.683,2.663,4.013,4.514,5.582
		c1.258,1.11,2.987,1.291,4.518,1.822c4.453,1.484,5.831,3.355,17.942,2.297c2.692-0.248,5.359-0.989,8.081-0.728
		c1.371,0.097,2.457,1.048,3.731,1.456c1.586,0.665,3.386,0.9,4.817,1.885c2.785,3.504,6.462,6.495,7.984,10.832
		c0.48,1.212-0.656,2.166-0.825,3.29C18.181,35.818,20.837,38.761,21.382,46.405z"/>
</symbol>
<symbol  id="_x31_8" viewBox="-62.59 -49.234 125.18 98.469">
	<path d="M-58.424,48.412c0.509,1.085,2.23,1.115,2.713-0.021c1.838-3.252,1.468-7.185,1.367-10.786
		c-0.366-4.808,0.93-9.507,1.388-14.265c0.366-3.269,1.527-6.419,3.412-9.129c2.074-3.147,4.022-6.899,7.795-8.266
		c4.396-1.434,9.019-0.139,13.508-0.029c9.835,0.639,19.62-1.355,29.447-0.732c3.126,0.164,5.683,2.082,8.439,3.327
		c1.207,0.576,2.082,1.62,3.092,2.457c6.344,5.019,7.757,13.752,13.491,19.288c4.708,4.463,16.16,4.468,20.844,1.447
		c1.838-1.102,1.847-3.647,3.496-4.897c4.11-1.296,9.154-1.527,12.023-5.195c-0.383-2.006-1.582-13.567-7.198-15.905
		c-2.053-0.98-4.661-0.766-6.361-2.444c-1.981-2.356-1.296-5.826-3.012-8.325c-1.102-1.653-3.454-1.859-4.463-3.601
		c0.391-3.054,0.707-6.516-1.346-9.099c-5.566-6.87-10.943-9.813-10.765-15.354c0.116-2.455,4.74-2.516,4.644-5.839
		c-0.097-6.184-13.33-5.098-14.336-2.936c-2.179,3.336-3.348,7.517-6.806,9.852c-9.208-1.767-18.951-2.032-27.949,0.921
		c-2.785,0.681-4.791,3.281-7.766,3.357c-6.107,0.442-9.97-7.769-15.687-10.235c-2.171-1.001-4.657-0.442-6.886-1.174
		c-1.001-0.32-1.716-1.115-2.427-1.842c0.37-1.552,1.35-3.357,0.366-4.876c-3.934-4.677-10.421-3.729-10.857-1.51
		c-1.094,3.037-3.252,5.898-2.869,9.284c0.08,1.62,1.99,2.263,2.276,3.744c-0.273,2.953-0.808,5.885-1.102,8.834
		c0.581,0.938,0.846,2.036,1.468,2.936c1.296,1.308,3.243,1.489,4.88,2.154c-2.048,7.794,4.594,9.6,4.846,15.148
		c-0.248,5.88-16.143,13.842-13.541,34.074c0.349,2.532,0.341,5.103,0.804,7.61c0.332,1.88,1.523,3.496,1.712,5.406
		C-59.467,44.016-59.593,46.414-58.424,48.412z"/>
</symbol>
<symbol  id="_x31_9" viewBox="-67.292 -46.826 134.585 93.652">
	<path d="M46.541,46.826c2.419-2.789,2.293-6.663,2.078-10.121c4.468-0.303,8.918-2.402,11.602-6.054
		c3.466-4.283,6.806-9.234,7.071-14.888c-1.144-1.573-3.37-2.019-5.077-2.861c-3.062-0.639-5.969,1.207-9.032,1.161
		c-1.624-0.122-3.088,0.837-4.686,0.766c-3.868-1.139-3.137-6.458-6.306-10.113c-0.698-1.741-1.169-3.635-1.178-5.532
		c-0.046-3.459-2.23-9.031-5.864-12.296c-1.439-1.292-2.183-3.138-2.65-4.976c-1.296-5.01-2.983-9.945-3.66-15.098
		c-0.236-1.666-0.097-3.361-0.282-5.04c-0.109-1.11-0.294-2.242-0.08-3.365c0.479-1.502,2.701-2.078,2.549-3.828
		c-0.938-1.636-3.206-1.46-4.812-1.254c-2.755,0.669-3.559,3.883-3.988,6.306c-0.038,1.721-2.251,2.137-2.406,3.816
		c-0.509,2.713,0.955,5.275,0.867,7.976c-0.034,2.575,0.875,5.204-0.025,7.719c-10.921-1.01-21.538,2.562-32.404,2.739
		c-0.374-0.951-0.547-2.659-1.973-2.432c-4.668,0.593-5.414,7.804-9.675-1.262c-1.502-3.426-7.125-4.482-12.99-11.047
		c-0.629-0.654-0.238-0.697-0.501-7.955c-0.008-2.633,3.946-2.848,3.963-5.469c-0.677-0.745-1.771-0.501-2.663-0.526
		c-1.426,0.122-2.852,0.08-4.278,0.105c-3.849,0.438-3.346,9.694-3.82,13.52c-1.181,10.397,10.945,3.094,4.96,22.464
		c-0.471,2.789-0.702,5.721-0.046,8.493c1.123,2.983,3.723,5.111,5.023,8.005c-8.284,0.635-26.479-0.97-33.548,4.926
		c0.69,0.4,1.46,0.787,2.28,0.551c20.754-3.556,32.17,0.313,35.732,0.652c1.918,0.042,3.58,1.165,5.452,1.464
		c4.892,0.968,9.89,0.181,14.799-0.202c6.091-0.661,15.785-0.663,18.32,0.135c1.06,0.538,1.8,1.569,2.924,2.006
		c1.472,0.631,3.079,0.968,4.425,1.872c1.771,1.258,4.249,0.997,5.822,2.596c1.59,1.653,3.071,3.424,4.947,4.762
		C44.853,37.277,42.363,40.013,46.541,46.826z"/>
</symbol>
<symbol  id="_x32_" viewBox="-64.338 -54.449 128.676 108.898">
	<path d="M32.863,49.199c1.275,1.636,1.195,4.165,3.189,5.25c0.105-0.345,0.32-1.031,0.425-1.376c0.421,0.454,0.841,0.9,1.291,1.338
		c1.089-0.959,1.439-2.431,2.352-3.521c1.805-1.296,4.228-0.505,6.18-1.418c2.84-1.321,3.689-5.124,6.853-5.936
		c3.076-0.483,9.586,1.929,11.013-1.354c0.45-1.46-0.067-2.995-0.547-4.379c-0.787-2.322-3.104-3.521-4.535-5.385
		c0.913,0.278,1.796,0.888,2.798,0.711c1.371-1.174,0.702-3.323-0.757-4.076c-3.012-1.561-6.844-0.164-9.684-2.192
		c-1.254-0.892-0.656-2.541-0.408-3.773c0.893-2.569-1.822-3.345-1.098-9.675c0.177-1.338-0.45-2.583-0.879-3.807
		c-1.195-3.067-1.085-6.533-2.734-9.44c-1.094-1.901-1.683-4.022-2.499-6.045c-2.07-4.897-6.848-7.972-9.032-12.797
		c-0.648-1.573-1.388-3.096-2.099-4.64c-1.144-2.465-0.711-5.254-1.161-7.862c-0.271-1.678-3.194-13.958,0.37-16.553
		c1.472-0.846,3.433-0.391,4.783-1.544c1.346-1.342,0.938-4.266-1.081-4.724c-3.214-0.98-6.567-0.109-9.797,0.269
		c-2.545,0.282-5.54-0.303-7.635,1.489c-1.868,2.23-1.817,5.321-2.183,8.052c-2.364,2.44-2.663,6.016-2.705,9.238
		c0.006,5.051,2.787,10.502-2.579,13.079C4.295-24.412-8.879-21.4-15.48-18.915c-2.932,1.064-5.587,3.02-8.771,3.26
		c-2.97-0.252-5.57-2.078-7.433-4.325C-41.341-31.931-51.44-32.075-52.55-38.64c-0.437-2.461-0.564-5.22,0.694-7.475
		c1.481-1.283,3.727-1.409,5.052-2.928c2.078-2.879-5.409-4.798-9.574-2.293c-1.38,0.698-3.437-0.139-4.366,1.371
		c-0.98,1.973-0.471,4.274-0.896,6.373c-2.727,14.865,5.495,11.04,2.335,25.366c-3.005,13.321,4.198,22.325,6.899,26.712
		c-7.947,2.034-15.108,20.333-10.462,33.115c1.279,3.311,3.87,5.919,6.651,8.035c7.746,5.935,36.012-5.389,27.575-14.139
		c-1.994-1.447-4.606-1.481-6.966-1.758c-2.305-0.286-4.619,0.61-6.899,0.088c-5.096-1.429,0.054-10.004,3.008-14.399
		c2.97-0.185,5.944,0.425,8.918,0.05c3.004-0.181,5.713-2.217,8.796-1.62c8.052,1.544,16.364,2.154,24.058,5.183
		c3.176,1.308,6.87,0.572,9.894,2.322c3.256,2.057,5.313,5.418,7.564,8.447c1.401,2.07,3.37,3.672,4.737,5.767
		c1.472,2.158,2.671,4.535,4.543,6.386C30.188,47.167,31.854,47.815,32.863,49.199z"/>
</symbol>
<symbol  id="_x32_0" viewBox="-58.099 -53.464 116.198 106.928">
	<path d="M-31.786,52.673c0.543,0.383,1.19,0.568,1.809,0.791c1.885-2.852,0.825-6.499,0.332-9.621
		c-1.397-4.228-0.665-8.784-1.906-13.045c-1.384-5.141-0.29-10.546-1.354-15.733c-0.08-0.618-0.391-1.275-0.156-1.914
		c3.264-1.153,6.794-0.513,10.163-1.018c6.129-0.766,12.342-0.463,18.446,0.353c3.58,0.383,6.453,2.713,9.713,3.992
		c4.402,1.683,8.102,0.07,13.016,10.984c0.841,1.96,2.394,3.445,3.778,5.019c2.938,3.272,1.179,7.294,12.851,8.973
		c2.381,0.257,4.989,0.917,7.214-0.328c1.893-0.795,1.889-3.348,3.656-4.291c3.521-1.834,7.782-0.871,11.35-2.541
		c1.397-0.627,0.972-2.343,0.652-3.5c-0.517-1.666-0.257-3.635-1.451-5.044c-4.565-5.228-5.051-5.053-12.814-4.56
		c-0.9,0.025-1.994,0.021-2.591-0.774c-3.434-4.598-2.41-9.434-3.593-11.505c-0.774-0.934-2.221-1.157-2.726-2.352
		c-3.964-8.407,0.191-11.022-2.44-13.596c-9.693-10.158-7.624-7.815-9.318-14.753c-0.938-3.504-0.45-7.168-1.035-10.727
		c-0.244-2.284-0.652-4.913,0.715-6.933c2.019-1.186,4.905-2.793,4.287-5.595c-1.169-0.084-2.394,0.126-3.504-0.332
		c-1.157-0.576-2.352,0.206-3.521,0.315c0.568-0.967,1.687-0.812,2.642-0.967c1.279-1.115,2.894-2.495,2.684-4.379
		c-1.077-1.414-3.092-1.418-4.695-1.712c-2.091-0.088-4.568-0.063-6.171,1.481c-1.262,1.746-0.745,4.089-1.544,6.007
		c-0.787,0.694-1.906,0.955-2.558,1.8c-0.198,0.963,0.181,1.893,0.404,2.802c0.816,2.423-0.202,4.909-0.391,7.345
		c-0.614,3.559-0.219,7.252-1.312,10.727c-4.16-0.021-8.409,0.282-12.271,1.965c-3.336,1.59-7.059,1.935-10.677,2.415
		c-1.161,0.198-2.263-0.332-3.382-0.555c0.29-1.258,1.645-2.856,0.294-3.921c-1.132-0.602-2.667-1.09-3.841-0.32
		c-1.716,1.056-3.677,1.8-5.048,3.332c-1.594,1.952-3.518-1.244-4.892-3.121c-3.005-4.293-8.955-6.931-6.432-14.913
		c0.543-2.167,3.454-2.41,4.148-4.484c0.909-2.709-3.965-2.23-8.195-2.305c-0.215,0.69-0.416,1.371-0.606,2.053
		c-1.561,1.19-0.74,3.218-1.119,4.85c-0.215,1.333-1.01,2.507-1.136,3.841c0.164,1.169,0.45,2.318,0.475,3.492
		c-4.407-1.843-9.624-9.949-6.92-17.054c1.266-1.359,3.466-1.809,4.215-3.685c1.501-2.681-8.749-5.027-10.735-0.698
		c-0.724,1.683-0.467,3.571-0.429,5.343c0.341,4.072-0.206,8.144-0.396,12.208c-0.048,3.102,4.781,3.157,5.944,11.286
		c0.614,4.501,1.83,8.931,1.826,13.499c0.223,4.686,0.976,10.113,4.935,13.188c2.293,1.38,3.794,3.719,4.892,6.095
		c3.379,14.933-0.756,21.712,3.1,30.074c1.291,2.65,2.036,5.587,3.866,7.942C-32.569,49.758-32.236,51.256-31.786,52.673z"/>
</symbol>
<symbol  id="_x33_" viewBox="-69.073 -57.731 138.147 115.461">
	<path d="M32.617,55.426c1.712,0.627,3.357,1.443,5.086,2.019c0.404-0.328,0.745-0.724,1.115-1.098
		c1.022,0.509,2.023,1.111,3.147,1.384c0.934-0.551,1.031-1.939,2.095-2.335c3.824-1.325,7.021-3.891,10.542-5.818
		c2.499-1.779,5.683-2.175,8.157-4.009c10.509-7.356,4.797-8.11,4.514-11.165c-0.194-1.788-0.66-3.614-1.893-4.977
		c-0.711-0.707-0.589-1.75-0.702-2.659c-0.4,0.711-0.648,2.15-1.742,1.754c-1.369-0.38,0.181-2.337,0.109-5.519
		c-0.77,0.505-1.489,1.073-2.213,1.628c-0.947,0.761-2.267,0.724-3.26,1.388c-1.439,1.283-1.923,3.567-3.837,4.312
		c-11.929,2.334-12.841,3.098-14.172,1.826c-3.441-3.083-5.292-7.437-6.996-11.627c-1.392-3.584-3.681-6.722-5.448-10.109
		c-0.454-3.227,0.4-6.508-0.114-9.743c-0.311-3.248-2.76-5.889-2.751-9.196c-0.13-1.599,0.181-3.546-1.212-4.695
		c-1.649-1.266-1.641-3.496-1.552-5.376c0.828-13.06-2.292-22.614-1.001-26.914c0.547-2.255,3.555-3.504,2.713-6.121
		c0.913-1.001,2.154-2.082,2.087-3.559c-1.879-2.693-5.455-1.685-9.448-1.935c-1.136,0.021-2.511-0.328-3.374,0.614
		c-0.921,0.934-2.057,1.607-2.974,2.532c-0.681,0.972-0.707,2.246-1.367,3.231c-1.788,2.987-0.875,6.554-0.808,9.814
		c0.181,3.471-1.721,6.63-1.674,10.083c0.063,2.966-0.564,5.889-0.56,8.851c-0.103,3.047-0.196,4.471-3.651,5.368
		c-4.316,1.073-8.779,1.939-12.7,4.139c-1.998,1.01-3.887,2.394-6.154,2.709c-1.3,0.236-2.629,0.324-3.891,0.707
		c-1.325,0.391-2.326,1.477-3.677,1.8c-1.304,0.315-2.633,0.505-3.933,0.816c-0.795-2.856,0.017-6.062-1.603-8.704
		c-1.813-2.915-3.248-6.129-5.662-8.624c-3.875-4.01-2.903-1.602-12.115-12.33c-3.389-3.958-8.943-1.958-10.845-14.501
		c-0.425-2.196,3.079-1.986,3.155-4.156c-0.589-1.085-1.304-2.137-2.225-2.966c-2.166,0.702-4.425,0.93-6.693,0.925
		c-3.161,1.688-4.588,3.362-4.051,9.137c0.303,3.782-0.337,7.749,1.111,11.358c1.784,4.48,5.805,7.534,7.921,11.821
		c5.513,11.28,3.364,22.531,6.184,29.666c1.127,2.89,3.576,5.069,4.56,8.022c0.875,3.571-0.85,7.084-0.82,10.664
		c-0.391,5.25,2.76,9.797,5.637,13.882c1.758,2.171,2.726,5.279,5.519,6.373c1.136,0.593,1.796-0.795,1.439-1.725
		c-0.897-3.209-8.035-10.213-6.39-17.584c1.308-6.25,5.473-4.465,12.91-4.901c6.47,1.083,14.414-1.299,27.112,3.714
		c6.274,2.543,12.704-1.867,26.881,19.435c1.392,2.28,4.299,3.046,5.717,5.292c0.231,0.968,0.122,2.053,0.85,2.835
		C30.778,52.523,30.745,54.803,32.617,55.426z"/>
</symbol>
<symbol  id="_x34_" viewBox="-78.074 -59.271 156.149 118.542">
	<path d="M46.579,57.57c1.97,2.2,1.602,1.625,10.256,1.653c1.7-2.116,4.245-3.18,6.432-4.674c1.662-1.115,2.734-2.844,4.131-4.236
		c1.476-1.503,1.43-0.719,10.63-5.237c0.013-0.732,0.025-1.464,0.046-2.2c-2.566-3.647-7.383-4.568-11.556-4.001
		c-8.967,0.852-13.383,4.152-16.25-4.451c-1.153-3.403-1.683-7.004-3.088-10.323c-1.262-3.029-4.186-4.905-5.7-7.77
		c-1.026-1.8-0.315-3.967-0.871-5.889c-2.09-7.95-11.388-13.075-9.831-24.184c1.514-11.087-0.263-27.245,4.038-36.783
		c1.897-1.908,7.548-1.92,3.929-6.516c-0.652-0.913-1.876-0.774-2.839-1.01c-1.506-0.16-2.722-1.594-4.304-1.127
		c-1.355,0.358-2.852,0.694-3.921,1.615c-1.111,2.242-0.942,4.888-2.032,7.143c-0.946,2.28-3.269,3.614-4.24,5.864
		c-0.938,3.046,0.004,6.23-0.143,9.339c-0.173,3.538-1.043,7.008-1.081,10.559c-0.021,2.099,0.303,4.194,0.156,6.293
		c-0.236,4.291-4.707,7.231-4.043,11.72C-0.091-9.028-13.266,7.597-23.497,7.616c-11.607,0.456-8.355-13.133-11.606-20.68
		c-3.556-7.944-17.784-14.792-13.882-27.07c1.782-1.353,6.801-1.065,5.805-4.632c-4.233-2.9-10.542-2.696-10.82,2.877
		c-0.248,3.34,0.639,6.638,0.492,9.982c-5.594-5.471-10.363-11.326-7.942-18.93c1.346-1.628,3.929-1.098,5.481-2.461
		c0.804-0.808,0.681-2.368-0.299-2.987c-2.444-1.38-5.898-1.893-8.346-0.294c-2.702,2.444-1.032,9.277-1.447,13.848
		c-0.258,7.38-1.29,7.605,4.459,12.435c2.928,2.259,5.124,5.305,6.916,8.51c-5.997-6.096-17.653-9.314-23.389-3.521
		c3.656-0.795,7.505-1.308,11.143-0.143c6.663,1.931,11.4,8.094,12.982,14.656c-1.493,5.485-3.71,11.152-2.507,16.924
		c1.035,6.291,11.449,19.558,29.956,23.36c17.437,3.631,41.046-0.908,50.792,3.227c3.672,1.485,6.685,4.198,9.225,7.177
		c3.786,4.489,7.845,8.75,11.287,13.512C45.784,54.617,45.506,56.401,46.579,57.57z"/>
</symbol>
<symbol  id="_x35_" viewBox="-60.515 -59.559 121.03 119.118">
	<path d="M28.616,57.514c7.813,5.169,20.237-0.112,20.541-8.582c0.293-3.793-2.344-5.574,0.206-6.672
		c3.159-1.35,6.798-0.875,9.94-2.267c1.798-0.695,3.648-9.343-10.773-10.946c0.458-3.887,0.757-8.153-1.233-11.686
		c-1.333-1.531-3.471-1.96-5.204-2.907c0.698-23.305-5.024-22.441-8.342-28.218c-0.246-1.712,1.061-9.246-0.219-13.979
		c-0.534-1.754,0.046-3.559,0.118-5.33c0.181-3.799-0.185-7.589-0.173-11.388c-0.046-2.457-0.484-5.233-2.633-6.768
		c9.602-7.725-2.152-10.171-7.412-6.945c-1.704,1.09-1.165,3.714-2.709,4.796c-2.194-0.189-8.599-2.871-11.43-0.412
		c-1.83,1.821-0.484,5.031-2.579,6.689c-6.939,6.162-1.049,20.02,0.53,28.273c-6.747,1.876-11.711,7.968-18.896,8.573
		c-1.687-0.013-4.068,0.433-5.01-1.371c-1.388-1.876-2.234-4.055-3.067-6.213c-1.052-2.688-3.752-4.282-4.817-6.962
		c-0.576-1.502-0.841-3.151-1.809-4.48c-2.734-3.874-4.266-8.451-7.101-12.258c-0.976-1.127-0.972-2.798-2.057-3.837
		c-0.85-0.82-1.514-1.847-2.495-2.528c-1.7-0.787-3.626-0.745-5.439-1.106c1.443-1.296,3.151-2.541,3.811-4.438
		c0.433-1.409,0.173-3.492-1.451-3.996c-1.636-0.421-3.353,0.143-5.002-0.236c-1.493-0.257-3.243-0.799-4.556,0.265
		c-1.485,0.972-1.14,2.97-1.99,4.32c-1.405,0.917-3.664,0.551-4.468,2.322c-1.035,2.469,0.602,5.077,0.05,7.601
		c-0.29,1.549-2.44,1.662-2.713,3.227c-0.299,1.573-0.761,3.151-0.753,4.762c0.257,3.403,2.818,5.864,4.56,8.59
		c1.418,1.876,2.183,4.16,3.744,5.94c1.569,2.044,3.479,3.874,4.653,6.196c1.817,4.56,4.076,8.931,5.927,13.478
		c0.951,2.183,0.307,4.674,1.186,6.874c1.934,5.276,6.314,7.866,4.812,9.739c-1.148,1.363-2.532,2.633-4.215,3.273
		c-1.182-0.227-2.091-1.199-3.311-1.333c-4.826-0.854-10.961,5.677-12.288,8.994c-2.669,6.92,3.878,13.966,8.085,13.121
		c9.169-3.115,11.12-5.455,12.04-12.578c0.32-1.683-0.656-3.147-0.997-4.716c1.561-1.83,3.866-3.041,6.184-3.618
		c2.541-0.147,5.014,0.698,7.522,1.026c10.413,1.864,21.255-2.393,35.841,2.936c6.587,2.275,3.566,0.589,8.973,13.857
		c0.534,1.388,1.687,2.474,2.07,3.925C24.216,42.361,21.219,52.586,28.616,57.514z"/>
</symbol>
<symbol  id="_x36_" viewBox="-43.892 -43.15 87.784 86.299">
	<path d="M20.323,43.15c2.444-0.315,3.803-2.587,4.859-4.564c-0.072-1.666-0.665-3.483,0.193-5.048
		c1.645-1.312,4.143,0.526,5.801-0.917c0.829-0.681,1.746-1.27,2.835-1.464c1.245-1.241,1.822-2.915,2.705-4.396
		c1.923-1.599,4.804-0.206,6.849-1.569c0.576-0.56,0.244-1.477,0.101-2.162c-0.581-1.62-1.367-3.18-1.565-4.918
		c-2.162-1.679-4.976-2.078-7.248-3.521c-3.844-4.183-0.582-8.372-2.398-15.396c-0.501-1.662,0.227-3.37-0.038-5.061
		c-0.323-3.931-3.919-3.735-3.719-10.984c0.034-2.272-1.817-4.03-1.943-6.272c-0.114-2.772-2.002-5.725-0.341-8.354
		c1.607-1.986,4.573-2.377,5.839-4.754c-2.675-1.401-5.78-1.464-8.716-1.165c-0.782,1.733-2.793,2.65-3.172,4.581
		c-0.467,2.099,0.437,4.173,0.349,6.276c-0.076,2.099,0.391,4.261-0.353,6.285c-0.404,1.106,0.118,2.242,0.215,3.349
		c-2.532-2.007-0.454-5.267-1.207-7.862c-0.458-1.67-0.585-3.395-0.665-5.12c-0.038-1.767-1.098-3.483-0.538-5.258
		c2.294-5.498,3.812-3.032,4.211-7.118c-2.196-0.921-4.674-1.102-6.996-0.648c-1.329,0.185-1.864,1.594-2.284,2.68
		c-0.896,2.966-2.612,5.856-2.036,9.065c0.568,3.269,0.21,6.567-0.076,9.844c-0.589,0.854-1.01,1.813-1.641,2.625
		c-3.012,1.228-6.348,1.439-9.44,2.364c-3.773,2.448-6.167,6.651-10.319,8.624c-0.442-1.695-0.602-3.492-1.397-5.077
		c-0.854-1.784-3.159-2.457-3.635-4.476c-0.315-2.158,1.207-4.001,1.514-6.083c0.21-2.141,3.605-2.293,3.462-4.61
		c-1.254-0.972-2.97-1.111-4.493-0.963c-2.091,0.307-3.319,2.524-3.231,4.501c0.038,2.932-0.993,5.704-2.179,8.333
		c-2.28-0.315-3.862-2.213-5.372-3.773c-0.976-1.582-2.053-3.391-1.674-5.33c0.269-2.023,0.24-4.093,0.673-6.1
		c0.871-0.871,2.575-1.308,2.482-2.814c0.056-2.342-4.664-2.505-6.672-0.896c-0.997,1.649-1.216,3.714-0.778,5.574
		c0.076,2.301,0.433,4.657-0.189,6.907c-0.223,1.052-0.538,2.124-0.332,3.197c0.53,1.376,2.175,1.767,2.966,2.949
		c2.861,4.248,0.917,3.314,0.454,10.058c-0.189,2.562-2.095,4.61-2.297,7.168c-0.109,1.506,0.084,3.004,0.156,4.505
		c-2.15-1.018-4.24-2.398-6.676-2.554c-8.367-0.26-8.09,14.662-0.694,16.764c-2.839-21.374,7.996-5.437,18.774-3.159
		c7.28,1.349,16.407-3.774,19.338-3.79c4.371,0.4,8.943-1.662,13.142,0.307c0.707,1.064,1.119,2.288,1.603,3.458
		c2.75,7.215-0.614,5.883,1.552,14.416c0.244,1.144,0.652,2.343,0.345,3.513c-0.362,1.098-2.343,0.913-2.099,2.305
		c0.825,0.833,2.457,1.119,3.235,0.067c0.736-1.005,1.312-2.124,2.108-3.096c0.69,1.615,1.464,3.29,1.439,5.082
		C20.845,40.167,20.147,41.593,20.323,43.15z"/>
</symbol>
<symbol  id="_x37_" viewBox="-41.066 -42.318 82.133 84.636">
	<path d="M12.961,41.097c0.437,1.27,2.028,1.422,3.138,1.031c6.111-2.175,5.782-7.068,9.023-4.354
		c1.359,1.451,2.461,3.529,4.615,3.87c1.796-1.09,1.115-3.504,1.283-5.25c9.998-6.047,2.836-7.756,6.891-11.838
		c1.048,0.151,2.229,0.366,3.155-0.337c-0.08-1.304-1.043-2.326-1.405-3.555c-0.635-1.935-1.674-3.9-3.593-4.825
		c-2.187-1.014-3.176-3.559-2.987-5.856c0.492-8.148-0.732-16.768-5.317-23.692c-2.078-3.357-5.864-5.073-8.153-8.254
		c1.312-3.933,2.646-7.879,4.35-11.665c0.934-2.314,3.681-3.441,4.152-5.999c0.189-1.641-2.07-2.23-3.252-1.54
		C21.231-39.225,12.728-29.321,9.23-25.558c-1.8-3.033-3.845-6.02-4.737-9.478C4.06-36.63,4.342-38.422,3.488-39.89
		c-0.639-1.102-2.41-1.111-3.113-0.08c-1.431,2.164-0.513,8.621,0.215,14.442c0.354,3.29-1.14,3.047-4.72,3.803
		c-1.312,0.206-3.025,0.589-3.916-0.694c-1.725-2.141-3.176-4.556-4.072-7.164c0.644-2.065,2.053-3.904,3.74-5.254
		c1.397-1.169,3.458-1.127,4.762-2.415c0.429-1.111-0.631-2.103-1.594-2.431c-4.317-1.165-12.112,4.31-15.729,7.824
		c-2.402,2.301-3.197,5.624-4.362,8.615c-8.052-1.848-8.727-10.528-6.281-14.66c0.891-1.646,3.603-4.311-0.071-4.413
		c-2.356,0.067-3.807,2.284-4.922,4.085c-7.727,14.387-3.3,16.898-2.541,23.023c1.936,14.379,1.18,17.742,4.169,20.482
		c0.69,0.812,2.108,1.325,1.843,2.608c-1.01,13.18,15.876,15.434,24.003,12.847c2.343-2.444,5.326-5.166,4.724-8.939
		c2.12,0.454,4.076,1.397,6.07,2.221c1.052,0.463,2.339,0.639,3.067,1.632c2.166,2.638,3.155,6.095,3.142,9.473
		c1.697,6.007,2.705,6.125,5.784,9.242C13.336,36.575,12.33,38.851,12.961,41.097z"/>
</symbol>
<symbol  id="_x38_" viewBox="-54.724 -48.259 109.448 96.517">
	<path d="M29.218,45.474c0.345,0.938,0.707,1.868,1.106,2.785c2.465-1.67,2.911-4.758,3.508-7.442
		c1.507,0.428,2.671-0.298,5.586,7.332c0.942-1.531,0.395-3.349,0.539-5.035c0.185-1.258-0.568-2.76,0.479-3.769
		c1.308-1.371,2.541-3.323,4.636-3.412c3.463-0.438,4.095-1.447,4.497-4.909c-1.354,0.139-2.629,0.602-3.887,1.069
		c0.173-0.879,0.189-1.952,0.984-2.545c1.649-1.354,4.001-1.384,5.645-2.755c0.913-0.854,1.556-1.943,2.377-2.89
		c0.294-3.416-1.346-6.529-2.94-9.419c-1.119-1.472-2.777-2.427-4.468-3.105c-0.614-1.048-0.404-2.511-1.388-3.34
		c-2.701-0.956-4.495,4.018-6.365,6.819c-0.686,0.917-0.627,2.099-0.858,3.159c-1.186-2.145-1.266-4.644-2.011-6.933
		c-0.383-1.359-1.775-2.276-1.771-3.757c-0.013-1.843,0.517-3.643,0.538-5.49c-0.092-1.712-0.854-3.302-0.925-5.023
		c-0.194-1.775,0.059-3.735-0.925-5.326c-1.519-2.217-2.579-4.703-4.005-6.979c-1.662-2.562-0.433-5.742-1.615-8.451
		c-0.585-2.087-2.175-4.076-1.607-6.335c0.362-1.464-0.139-3.004,0.299-4.455c0.749-1.287,2.31-1.893,3.025-3.222
		c0.324-0.698,0.252-1.91-0.652-2.116c-2.84-0.808-5.78-1.245-8.729-1.312c0.951-1.418,2.995-2.86,2.166-4.796
		c-1.674-1.889-4.497-1.943-6.84-2.07c-2.272-0.139-4.266,1.039-6.356,1.712c-0.416,1.06-0.707,2.162-1.048,3.243
		c-0.576,1.695-1.969,2.995-2.381,4.754c-0.231,0.993,0.32,1.977,0.105,2.949c-0.841,3.538-1.333,7.307-0.315,10.862
		c-0.652,1.902-1.338,3.794-1.721,5.772c-4.589,1.864-9.351,3.403-13.621,5.969c-1.889-1.085-3.025-3.016-4.716-4.337
		c-1.376-1.123-2.848-2.166-3.937-3.588c-0.921-1.241-2.427-1.792-3.58-2.768c-1.148-0.951-2.743-1.056-3.866-2.032
		c-4.919-3.871-2.199-5.893-1.502-8.195c1.081-0.791,2.044-1.742,2.709-2.924c-3.301-3.738-6.665-1.963-11.089-1.573
		c-0.564,0.484-1.131,0.951-1.704,1.409c-0.425,1.805-2.103,3.075-2.006,5.031c-0.963-1.052-2.002-2.145-2.373-3.563
		c-0.484-1.527-1.493-2.806-2.124-4.27c0.673-1.439,1.914-2.898,1.594-4.573c-2.362-2.615-8.453-2.236-11.35-0.307
		c-0.702,2.427-0.071,5.01-0.652,7.45c-1.031,3.429-0.046,7.32,2.141,10.1c0.854,1.233,0.82,2.898,1.868,4.009
		c1.506,1.658,5.799,10.243,6.382,11.77c0.74,3.117,0.278,6.445,1.43,9.486c0.56,1.771,2.276,2.802,3.062,4.442
		c0.892,1.931,1.847,3.841,2.688,5.797c-0.424,1.548-5.279,11.261,0.597,20.402c2.259,3.757,10.556,9.439,13.739,7.164
		c0.202-1.342-1.329-1.977-2.23-2.65c-3.433-1.834-6.806-4.396-8.27-8.127c-1.115-2.671-1.725-5.708-0.921-8.548
		c0.501-1.523,1.472-3.117,3.134-3.534c13.305,3.871,31.382,1.285,42.294,4.076c9.697,2.443,7.814,11.796,13.339,16.835
		c-0.812,1.834-0.294,3.845,0.568,5.557C26.563,41.625,27.094,44.178,29.218,45.474z"/>
</symbol>
<symbol  id="_x39_" viewBox="-58.502 -45.002 117.005 90.003">
	<path d="M31.084,43.412c4.11,2.221,9.41,2.112,13.415-0.307c5.278-3.082,11.477-11.279,13.89-17.268
		c0.538-1.872-0.942-3.445-2.427-4.308c-0.963-2.398-3.542-3.571-6.024-3.349c-3.386-0.055-6.243,2.575-9.68,2.04
		C32.403,19.066,28.313,0.59,25.994-7.014c-3.119-9.665-3.806-7.457-1.081-29.056c0.286-2.381,1.056-4.888,0.252-7.248
		c-1.708-3.177-11.2-2.236-13.844,6.083c-1.254,3.508-0.77,7.278-1.052,10.916c-0.143,2.436-1.043,4.741-1.262,7.164
		c-0.303,1.872-0.164,3.87-0.98,5.616c-0.396,0.825-1.443,0.787-2.221,0.846C-12.166-12.653-8.65,7.635-22.405-0.624
		c-1.577-0.993-1.329-3.075-1.325-4.682c0.803-13.576-8.961-18.326-12.54-26.111c-1.048-2.23-0.513-4.733-0.728-7.097
		c-0.537-5.758-6.903-7.128-10.782-2.739c-4.14,4.764-4.46,12.8-5.149,15.283c-1.129,3.604,9.332,4.577,9.461,17.197
		c-3.781-4.193-7.456-5.006-12.671,0.004c-1.182,1.098-2.28,2.461-2.364,4.139c2.402-1.624,4.636-3.63,7.421-4.573
		c3.437-0.014,7.586,5.318,6.861,8.106c-0.846,4.489-0.938,9.49,1.607,13.474c2.667,4.059,5.595,8.165,9.76,10.815
		c6.11,3.798,17.376,6.668,25.657,4.791c16.366-3.697,22.454-8.953,28.126-2.978C26.286,30.331,24.04,39.489,31.084,43.412z"/>
</symbol>
<g>
	
		<use xlink:href="#_x31_"  width="167.537" height="122.88" x="-83.769" y="-61.44" transform="matrix(2.9296 0 0 -2.9296 3704.7075 3817.1785)" overflow="visible"/>
	
		<use xlink:href="#_x31_"  width="167.537" height="122.88" x="-83.769" y="-61.44" transform="matrix(2.9296 0 0 -2.9296 4128.0854 2664.8489)" overflow="visible"/>
	
		<use xlink:href="#_x31_"  width="167.537" height="122.88" x="-83.769" y="-61.44" transform="matrix(2.9296 0 0 -2.9296 4136.2798 3005.8186)" overflow="visible"/>
	
		<use xlink:href="#_x31_"  width="167.537" height="122.88" x="-83.769" y="-61.44" transform="matrix(2.9296 0 0 -2.9296 2257.7522 3987.0701)" overflow="visible"/>
	
		<use xlink:href="#_x31_"  width="167.537" height="122.88" x="-83.769" y="-61.44" transform="matrix(2.9296 0 0 -2.9296 3404.0996 2783.4333)" overflow="visible"/>
	
		<use xlink:href="#_x31_"  width="167.537" height="122.88" x="-83.769" y="-61.44" transform="matrix(2.9296 0 0 -2.9296 1237.6124 2438.9709)" overflow="visible"/>
	
		<use xlink:href="#_x35_"  width="121.03" height="119.118" x="-60.515" y="-59.559" transform="matrix(2.9296 0 0 -2.9296 4573.6973 2914.4822)" overflow="visible"/>
	
		<use xlink:href="#_x35_"  width="121.03" height="119.118" x="-60.515" y="-59.559" transform="matrix(2.9296 0 0 -2.9296 2685.5305 972.9815)" overflow="visible"/>
	
		<use xlink:href="#_x35_"  width="121.03" height="119.118" x="-60.515" y="-59.559" transform="matrix(2.9296 0 0 -2.9296 4133.4185 3370.6064)" overflow="visible"/>
	
		<use xlink:href="#_x35_"  width="121.03" height="119.118" x="-60.515" y="-59.559" transform="matrix(2.9296 0 0 -2.9296 1716.9324 3930.7434)" overflow="visible"/>
	
		<use xlink:href="#_x35_"  width="121.03" height="119.118" x="-60.515" y="-59.559" transform="matrix(2.9296 0 0 -2.9296 4605.2891 2152.9077)" overflow="visible"/>
	
		<use xlink:href="#_x35_"  width="121.03" height="119.118" x="-60.515" y="-59.559" transform="matrix(2.9296 0 0 -2.9296 883.2438 2330.8572)" overflow="visible"/>
	
		<use xlink:href="#_x34_"  width="156.149" height="118.542" x="-78.074" y="-59.271" transform="matrix(2.9296 0 0 -2.9296 5121.6758 1911.2329)" overflow="visible"/>
	
		<use xlink:href="#_x34_"  width="156.149" height="118.542" x="-78.074" y="-59.271" transform="matrix(2.9296 0 0 -2.9296 3640.2461 3504.7207)" overflow="visible"/>
	
		<use xlink:href="#_x34_"  width="156.149" height="118.542" x="-78.074" y="-59.271" transform="matrix(2.9296 0 0 -2.9296 2090.3191 3196.3782)" overflow="visible"/>
	
		<use xlink:href="#_x34_"  width="156.149" height="118.542" x="-78.074" y="-59.271" transform="matrix(2.9296 0 0 -2.9296 960.218 811.0181)" overflow="visible"/>
	
		<use xlink:href="#_x34_"  width="156.149" height="118.542" x="-78.074" y="-59.271" transform="matrix(2.9296 0 0 -2.9296 1386.3435 457.2124)" overflow="visible"/>
	
		<use xlink:href="#_x34_"  width="156.149" height="118.542" x="-78.074" y="-59.271" transform="matrix(2.9296 0 0 -2.9296 1110.3396 190.3997)" overflow="visible"/>
	
		<use xlink:href="#_x33_"  width="138.147" height="115.461" x="-69.073" y="-57.731" transform="matrix(2.9296 0 0 -2.9296 1607.7126 3231.6365)" overflow="visible"/>
	
		<use xlink:href="#_x33_"  width="138.147" height="115.461" x="-69.073" y="-57.731" transform="matrix(2.9296 0 0 -2.9296 3781.4487 1490.3263)" overflow="visible"/>
	
		<use xlink:href="#_x33_"  width="138.147" height="115.461" x="-69.073" y="-57.731" transform="matrix(2.9296 0 0 -2.9296 1456.3016 1204.8287)" overflow="visible"/>
	
		<use xlink:href="#_x33_"  width="138.147" height="115.461" x="-69.073" y="-57.731" transform="matrix(2.9296 0 0 -2.9296 3177.1631 840.5196)" overflow="visible"/>
	
		<use xlink:href="#_x33_"  width="138.147" height="115.461" x="-69.073" y="-57.731" transform="matrix(2.9296 0 0 -2.9296 4669.6396 3211.7253)" overflow="visible"/>
	
		<use xlink:href="#_x33_"  width="138.147" height="115.461" x="-69.073" y="-57.731" transform="matrix(2.9296 0 0 -2.9296 2569.5186 4306.5718)" overflow="visible"/>
	
		<use xlink:href="#_x32_"  width="128.676" height="108.898" x="-64.338" y="-54.449" transform="matrix(2.9296 0 0 -2.9296 2404.8469 2314.344)" overflow="visible"/>
	
		<use xlink:href="#_x32_"  width="128.676" height="108.898" x="-64.338" y="-54.449" transform="matrix(2.9296 0 0 -2.9296 2255.3101 1096.2526)" overflow="visible"/>
	
		<use xlink:href="#_x32_"  width="128.676" height="108.898" x="-64.338" y="-54.449" transform="matrix(2.9296 0 0 -2.9296 3052.3682 1364.4073)" overflow="visible"/>
	
		<use xlink:href="#_x32_"  width="128.676" height="108.898" x="-64.338" y="-54.449" transform="matrix(2.9296 0 0 -2.9296 4181.9038 3783.2952)" overflow="visible"/>
	
		<use xlink:href="#_x32_"  width="128.676" height="108.898" x="-64.338" y="-54.449" transform="matrix(2.9296 0 0 -2.9296 2191.4856 1547.4697)" overflow="visible"/>
	
		<use xlink:href="#_x32_"  width="128.676" height="108.898" x="-64.338" y="-54.449" transform="matrix(2.9296 0 0 -2.9296 1773.9205 1666.368)" overflow="visible"/>
	
		<use xlink:href="#_x38_"  width="109.448" height="96.517" x="-54.724" y="-48.259" transform="matrix(2.9296 0 0 -2.9296 2235.3457 2741.0559)" overflow="visible"/>
	
		<use xlink:href="#_x38_"  width="109.448" height="96.517" x="-54.724" y="-48.259" transform="matrix(2.9296 0 0 -2.9296 3344.908 1938.1787)" overflow="visible"/>
	
		<use xlink:href="#_x38_"  width="109.448" height="96.517" x="-54.724" y="-48.259" transform="matrix(2.9296 0 0 -2.9296 4140.9536 2366.2375)" overflow="visible"/>
	
		<use xlink:href="#_x38_"  width="109.448" height="96.517" x="-54.724" y="-48.259" transform="matrix(2.9296 0 0 -2.9296 3029.9255 2778.366)" overflow="visible"/>
	
		<use xlink:href="#_x38_"  width="109.448" height="96.517" x="-54.724" y="-48.259" transform="matrix(2.9296 0 0 -2.9296 3201.0225 3537.519)" overflow="visible"/>
	
		<use xlink:href="#_x38_"  width="109.448" height="96.517" x="-54.724" y="-48.259" transform="matrix(2.9296 0 0 -2.9296 3914.4319 2087.9365)" overflow="visible"/>
	
		<use xlink:href="#_x39_"  width="117.005" height="90.003" x="-58.502" y="-45.002" transform="matrix(2.9296 0 0 -2.9296 2136.1675 3784.9653)" overflow="visible"/>
	
		<use xlink:href="#_x39_"  width="117.005" height="90.003" x="-58.502" y="-45.002" transform="matrix(2.9296 0 0 -2.9296 3440.2285 1188.3566)" overflow="visible"/>
	
		<use xlink:href="#_x39_"  width="117.005" height="90.003" x="-58.502" y="-45.002" transform="matrix(2.9296 0 0 -2.9296 3392.541 1594.8605)" overflow="visible"/>
	
		<use xlink:href="#_x39_"  width="117.005" height="90.003" x="-58.502" y="-45.002" transform="matrix(2.9296 0 0 -2.9296 897.5086 2003.0242)" overflow="visible"/>
	
		<use xlink:href="#_x39_"  width="117.005" height="90.003" x="-58.502" y="-45.002" transform="matrix(2.9296 0 0 -2.9296 1688.1914 2481.8289)" overflow="visible"/>
	
		<use xlink:href="#_x39_"  width="117.005" height="90.003" x="-58.502" y="-45.002" transform="matrix(2.9296 0 0 -2.9296 520.1966 2027.5928)" overflow="visible"/>
	
		<use xlink:href="#_x36_"  width="87.784" height="86.299" x="-43.892" y="-43.15" transform="matrix(2.9296 0 0 -2.9296 2083.1704 4329.8647)" overflow="visible"/>
	
		<use xlink:href="#_x36_"  width="87.784" height="86.299" x="-43.892" y="-43.15" transform="matrix(2.9296 0 0 -2.9296 2802.0896 4873.5879)" overflow="visible"/>
	
		<use xlink:href="#_x36_"  width="87.784" height="86.299" x="-43.892" y="-43.15" transform="matrix(2.9296 0 0 -2.9296 5274.5703 898.4338)" overflow="visible"/>
	
		<use xlink:href="#_x36_"  width="87.784" height="86.299" x="-43.892" y="-43.15" transform="matrix(2.9296 0 0 -2.9296 3261.6868 3164.4263)" overflow="visible"/>
	
		<use xlink:href="#_x36_"  width="87.784" height="86.299" x="-43.892" y="-43.15" transform="matrix(2.9296 0 0 -2.9296 1652.0322 126.4122)" overflow="visible"/>
	
		<use xlink:href="#_x36_"  width="87.784" height="86.299" x="-43.892" y="-43.15" transform="matrix(2.9296 0 0 -2.9296 5461.938 1972.0933)" overflow="visible"/>
	
		<use xlink:href="#_x37_"  width="82.133" height="84.636" x="-41.066" y="-42.318" transform="matrix(2.9296 0 0 -2.9296 3307.3164 3939.0017)" overflow="visible"/>
	
		<use xlink:href="#_x37_"  width="82.133" height="84.636" x="-41.066" y="-42.318" transform="matrix(2.9296 0 0 -2.9296 1619.0333 2072.5078)" overflow="visible"/>
	
		<use xlink:href="#_x37_"  width="82.133" height="84.636" x="-41.066" y="-42.318" transform="matrix(2.9296 0 0 -2.9296 1824.9795 3540.1724)" overflow="visible"/>
	
		<use xlink:href="#_x37_"  width="82.133" height="84.636" x="-41.066" y="-42.318" transform="matrix(2.9296 0 0 -2.9296 2035.1669 2381.5259)" overflow="visible"/>
	
		<use xlink:href="#_x37_"  width="82.133" height="84.636" x="-41.066" y="-42.318" transform="matrix(2.9296 0 0 -2.9296 5234.4121 578.2407)" overflow="visible"/>
	
		<use xlink:href="#_x37_"  width="82.133" height="84.636" x="-41.066" y="-42.318" transform="matrix(2.9296 0 0 -2.9296 1267.0673 2064.5266)" overflow="visible"/>
	
		<use xlink:href="#_x31_0"  width="150.17" height="79.92" x="-75.085" y="-39.96" transform="matrix(2.9296 0 0 -2.9296 2524.9324 4641.4819)" overflow="visible"/>
	
		<use xlink:href="#_x31_0"  width="150.17" height="79.92" x="-75.085" y="-39.96" transform="matrix(2.9296 0 0 -2.9296 2912.5659 1734.3477)" overflow="visible"/>
	
		<use xlink:href="#_x31_0"  width="150.17" height="79.92" x="-75.085" y="-39.96" transform="matrix(2.9296 0 0 -2.9296 4854.3271 1246.7749)" overflow="visible"/>
	
		<use xlink:href="#_x31_0"  width="150.17" height="79.92" x="-75.085" y="-39.96" transform="matrix(2.9296 0 0 -2.9296 3382.3223 410.9943)" overflow="visible"/>
	
		<use xlink:href="#_x31_0"  width="150.17" height="79.92" x="-75.085" y="-39.96" transform="matrix(2.9296 0 0 -2.9296 907.076 3061.7844)" overflow="visible"/>
	
		<use xlink:href="#_x31_0"  width="150.17" height="79.92" x="-75.085" y="-39.96" transform="matrix(2.9296 0 0 -2.9296 4980.6357 2208.1631)" overflow="visible"/>
	
		<use xlink:href="#_x31_5"  width="167.644" height="150.657" x="-83.822" y="-75.328" transform="matrix(2.9296 0 0 -2.9296 1312.1195 1675.6776)" overflow="visible"/>
	
		<use xlink:href="#_x31_5"  width="167.644" height="150.657" x="-83.822" y="-75.328" transform="matrix(2.9296 0 0 -2.9296 3758.866 724.9645)" overflow="visible"/>
	
		<use xlink:href="#_x31_5"  width="167.644" height="150.657" x="-83.822" y="-75.328" transform="matrix(2.9296 0 0 -2.9296 4309.626 747.7132)" overflow="visible"/>
	
		<use xlink:href="#_x31_5"  width="167.644" height="150.657" x="-83.822" y="-75.328" transform="matrix(2.9296 0 0 -2.9296 1779.9144 2833.7744)" overflow="visible"/>
	
		<use xlink:href="#_x31_5"  width="167.644" height="150.657" x="-83.822" y="-75.328" transform="matrix(2.9296 0 0 -2.9296 2323.4988 3455.2144)" overflow="visible"/>
	
		<use xlink:href="#_x31_5"  width="167.644" height="150.657" x="-83.822" y="-75.328" transform="matrix(2.9296 0 0 -2.9296 1054.9004 1148.8533)" overflow="visible"/>
	
		<use xlink:href="#_x31_1"  width="141.578" height="120.693" x="-70.789" y="-60.347" transform="matrix(2.9296 0 0 -2.9296 435.438 731.3167)" overflow="visible"/>
	
		<use xlink:href="#_x31_1"  width="141.578" height="120.693" x="-70.789" y="-60.347" transform="matrix(2.9296 0 0 -2.9296 5232.4106 2403.5776)" overflow="visible"/>
	
		<use xlink:href="#_x31_1"  width="141.578" height="120.693" x="-70.789" y="-60.347" transform="matrix(2.9296 0 0 -2.9296 4807.3042 827.2985)" overflow="visible"/>
	
		<use xlink:href="#_x31_1"  width="141.578" height="120.693" x="-70.789" y="-60.347" transform="matrix(2.9296 0 0 -2.9296 1148.636 3266.5486)" overflow="visible"/>
	
		<use xlink:href="#_x31_1"  width="141.578" height="120.693" x="-70.789" y="-60.347" transform="matrix(2.9296 0 0 -2.9296 483.1714 2362.8799)" overflow="visible"/>
	
		<use xlink:href="#_x31_1"  width="141.578" height="120.693" x="-70.789" y="-60.347" transform="matrix(2.9296 0 0 -2.9296 862.225 1594.1902)" overflow="visible"/>
	
		<use xlink:href="#_x31_2"  width="128.219" height="111.121" x="-64.11" y="-55.56" transform="matrix(2.9296 0 0 -2.9296 4828.1421 372.6089)" overflow="visible"/>
	
		<use xlink:href="#_x31_2"  width="128.219" height="111.121" x="-64.11" y="-55.56" transform="matrix(2.9296 0 0 -2.9296 599.5721 1215.1886)" overflow="visible"/>
	
		<use xlink:href="#_x31_2"  width="128.219" height="111.121" x="-64.11" y="-55.56" transform="matrix(2.9296 0 0 -2.9296 3018.4026 4338.437)" overflow="visible"/>
	
		<use xlink:href="#_x31_2"  width="128.219" height="111.121" x="-64.11" y="-55.56" transform="matrix(2.9296 0 0 -2.9296 4722.9746 2569.1702)" overflow="visible"/>
	
		<use xlink:href="#_x31_2"  width="128.219" height="111.121" x="-64.11" y="-55.56" transform="matrix(2.9296 0 0 -2.9296 5019.1025 2821.2732)" overflow="visible"/>
	
		<use xlink:href="#_x31_2"  width="128.219" height="111.121" x="-64.11" y="-55.56" transform="matrix(2.9296 0 0 -2.9296 1578.3096 794.5623)" overflow="visible"/>
	
		<use xlink:href="#_x31_4"  width="176.532" height="106.222" x="-88.266" y="-53.111" transform="matrix(2.9296 0 0 -2.9296 3719.9553 3043.3267)" overflow="visible"/>
	
		<use xlink:href="#_x31_4"  width="176.532" height="106.222" x="-88.266" y="-53.111" transform="matrix(2.9296 0 0 -2.9296 3898.0417 1149.0424)" overflow="visible"/>
	
		<use xlink:href="#_x31_4"  width="176.532" height="106.222" x="-88.266" y="-53.111" transform="matrix(2.9296 0 0 -2.9296 2017.0947 334.4992)" overflow="visible"/>
	
		<use xlink:href="#_x31_4"  width="176.532" height="106.222" x="-88.266" y="-53.111" transform="matrix(2.9296 0 0 -2.9296 737.5961 2776.4446)" overflow="visible"/>
	
		<use xlink:href="#_x31_4"  width="176.532" height="106.222" x="-88.266" y="-53.111" transform="matrix(2.9296 0 0 -2.9296 3901.5266 197.3027)" overflow="visible"/>
	
		<use xlink:href="#_x31_4"  width="176.532" height="106.222" x="-88.266" y="-53.111" transform="matrix(2.9296 0 0 -2.9296 2913.7786 2307.3115)" overflow="visible"/>
	
		<use xlink:href="#_x31_3"  width="153.738" height="100.716" x="-76.869" y="-50.358" transform="matrix(2.9296 0 0 -2.9296 4416.7959 1201.2239)" overflow="visible"/>
	
		<use xlink:href="#_x31_3"  width="153.738" height="100.716" x="-76.869" y="-50.358" transform="matrix(2.9296 0 0 -2.9296 2574.4766 3064.1443)" overflow="visible"/>
	
		<use xlink:href="#_x31_3"  width="153.738" height="100.716" x="-76.869" y="-50.358" transform="matrix(2.9296 0 0 -2.9296 5420.7246 1203.5928)" overflow="visible"/>
	
		<use xlink:href="#_x31_3"  width="153.738" height="100.716" x="-76.869" y="-50.358" transform="matrix(2.9296 0 0 -2.9296 2643.0383 2707.1465)" overflow="visible"/>
	
		<use xlink:href="#_x31_3"  width="153.738" height="100.716" x="-76.869" y="-50.358" transform="matrix(2.9296 0 0 -2.9296 4293.5869 1971.348)" overflow="visible"/>
	
		<use xlink:href="#_x31_3"  width="153.738" height="100.716" x="-76.869" y="-50.358" transform="matrix(2.9296 0 0 -2.9296 2861.7815 3289.4104)" overflow="visible"/>
	
		<use xlink:href="#_x32_0"  width="116.198" height="106.928" x="-58.099" y="-53.464" transform="matrix(2.9296 0 0 -2.9296 3189.2129 4683.0513)" overflow="visible"/>
	
		<use xlink:href="#_x32_0"  width="116.198" height="106.928" x="-58.099" y="-53.464" transform="matrix(2.9296 0 0 -2.9296 3341.8545 2423.1638)" overflow="visible"/>
	
		<use xlink:href="#_x32_0"  width="116.198" height="106.928" x="-58.099" y="-53.464" transform="matrix(2.9296 0 0 -2.9296 1826.8639 1186.9915)" overflow="visible"/>
	
		<use xlink:href="#_x32_0"  width="116.198" height="106.928" x="-58.099" y="-53.464" transform="matrix(2.9296 0 0 -2.9296 2739.9951 3603.3997)" overflow="visible"/>
	
		<use xlink:href="#_x32_0"  width="116.198" height="106.928" x="-58.099" y="-53.464" transform="matrix(2.9296 0 0 -2.9296 3833.5237 4131.9526)" overflow="visible"/>
	
		<use xlink:href="#_x32_0"  width="116.198" height="106.928" x="-58.099" y="-53.464" transform="matrix(2.9296 0 0 -2.9296 4761.9751 1692.7465)" overflow="visible"/>
	
		<use xlink:href="#_x31_7"  width="92.916" height="98.793" x="-46.458" y="-49.397" transform="matrix(2.9296 0 0 -2.9296 689.9854 389.9781)" overflow="visible"/>
	
		<use xlink:href="#_x31_7"  width="92.916" height="98.793" x="-46.458" y="-49.397" transform="matrix(2.9296 0 0 -2.9296 4158.8896 1457.2982)" overflow="visible"/>
	
		<use xlink:href="#_x31_7"  width="92.916" height="98.793" x="-46.458" y="-49.397" transform="matrix(2.9296 0 0 -2.9296 4393.5645 1631.7299)" overflow="visible"/>
	
		<use xlink:href="#_x31_7"  width="92.916" height="98.793" x="-46.458" y="-49.397" transform="matrix(2.9296 0 0 -2.9296 3591.948 2148.5583)" overflow="visible"/>
	
		<use xlink:href="#_x31_7"  width="92.916" height="98.793" x="-46.458" y="-49.397" transform="matrix(2.9296 0 0 -2.9296 226.6882 1950.7833)" overflow="visible"/>
	
		<use xlink:href="#_x31_7"  width="92.916" height="98.793" x="-46.458" y="-49.397" transform="matrix(2.9296 0 0 -2.9296 2730.7285 2026.7183)" overflow="visible"/>
	
		<use xlink:href="#_x31_8"  width="125.18" height="98.469" x="-62.59" y="-49.234" transform="matrix(2.9296 0 0 -2.9296 3887.3247 1742.014)" overflow="visible"/>
	
		<use xlink:href="#_x31_8"  width="125.18" height="98.469" x="-62.59" y="-49.234" transform="matrix(2.9296 0 0 -2.9296 183.3654 1433.2466)" overflow="visible"/>
	
		<use xlink:href="#_x31_8"  width="125.18" height="98.469" x="-62.59" y="-49.234" transform="matrix(2.9296 0 0 -2.9296 2896.9556 3899.2256)" overflow="visible"/>
	
		<use xlink:href="#_x31_8"  width="125.18" height="98.469" x="-62.59" y="-49.234" transform="matrix(2.9296 0 0 -2.9296 2621.8115 1416.7496)" overflow="visible"/>
	
		<use xlink:href="#_x31_8"  width="125.18" height="98.469" x="-62.59" y="-49.234" transform="matrix(2.9296 0 0 -2.9296 1449.689 3596.9043)" overflow="visible"/>
	
		<use xlink:href="#_x31_8"  width="125.18" height="98.469" x="-62.59" y="-49.234" transform="matrix(2.9296 0 0 -2.9296 2436.2263 590.229)" overflow="visible"/>
	
		<use xlink:href="#_x31_9"  width="134.585" height="93.652" x="-67.292" y="-46.826" transform="matrix(2.9296 0 0 -2.9296 1267.9808 2814.8889)" overflow="visible"/>
	
		<use xlink:href="#_x31_9"  width="134.585" height="93.652" x="-67.292" y="-46.826" transform="matrix(2.9296 0 0 -2.9296 390.3974 1642.2341)" overflow="visible"/>
	
		<use xlink:href="#_x31_9"  width="134.585" height="93.652" x="-67.292" y="-46.826" transform="matrix(2.9296 0 0 -2.9296 1965.3771 2017.1045)" overflow="visible"/>
	
		<use xlink:href="#_x31_9"  width="134.585" height="93.652" x="-67.292" y="-46.826" transform="matrix(2.9296 0 0 -2.9296 4389.4321 234.4862)" overflow="visible"/>
	
		<use xlink:href="#_x31_9"  width="134.585" height="93.652" x="-67.292" y="-46.826" transform="matrix(2.9296 0 0 -2.9296 5084.1274 1490.1619)" overflow="visible"/>
	
		<use xlink:href="#_x31_9"  width="134.585" height="93.652" x="-67.292" y="-46.826" transform="matrix(2.9296 0 0 -2.9296 5493.4951 1576.4626)" overflow="visible"/>
	
		<use xlink:href="#_x31_6"  width="99.541" height="89.22" x="-49.771" y="-44.61" transform="matrix(2.9296 0 0 -2.9296 4471.8237 3490.3279)" overflow="visible"/>
	
		<use xlink:href="#_x31_6"  width="99.541" height="89.22" x="-49.771" y="-44.61" transform="matrix(2.9296 0 0 -2.9296 223.8925 1092.2407)" overflow="visible"/>
	
		<use xlink:href="#_x31_6"  width="99.541" height="89.22" x="-49.771" y="-44.61" transform="matrix(2.9296 0 0 -2.9296 2402.2898 1849.291)" overflow="visible"/>
	
		<use xlink:href="#_x31_6"  width="99.541" height="89.22" x="-49.771" y="-44.61" transform="matrix(2.9296 0 0 -2.9296 3755.5176 2509.9802)" overflow="visible"/>
	
		<use xlink:href="#_x31_6"  width="99.541" height="89.22" x="-49.771" y="-44.61" transform="matrix(2.9296 0 0 -2.9296 3470.4751 4329.958)" overflow="visible"/>
	
		<use xlink:href="#_x31_6"  width="99.541" height="89.22" x="-49.771" y="-44.61" transform="matrix(2.9296 0 0 -2.9296 1956.2826 758.0468)" overflow="visible"/>
</g>
</svg>
